# xmcd
#
# Track frame offsets: 
#        150
#        15513
#        29803
#        48864
#        71396
#        89684
#        124204
#        147759
#
# Disc length: 2454 seconds
#
# Revision: 0
# Processed by: cddbd v1.5.2PL0 Copyright (c) Steve Scherf et al.
# Submitted via: ExactAudioCopy v0.99pb4
#
DISCID=6b099408
DTITLE=Craig Peyton Group - Pyramid Love
DYEAR=1977
DGENRE=Soul
TTITLE0=Snow
TTITLE1=Pyramid Love
TTITLE2=Funky Boogie
TTITLE3=Marjorie
TTITLE4=Plupts 77
TTITLE5=Waiting
TTITLE6=Fire and Ice
TTITLE7=Painted Desert
EXTD=
EXTT0=
EXTT1=
EXTT2=
EXTT3=
EXTT4=
EXTT5=
EXTT6=
EXTT7=
PLAYORDER=
